<svg width="50" height="50" viewBox="0 0 50 50" fill="none" xmlns="http://www.w3.org/2000/svg">
<path d="M49.0527 22.7714L27.2214 0.943313C26.9225 0.644256 26.5676 0.407022 26.177 0.245165C25.7864 0.0833082 25.3677 0 24.9449 0C24.522 0 24.1034 0.0833082 23.7127 0.245165C23.3221 0.407022 22.9672 0.644256 22.6683 0.943313L18.1371 5.47456L23.8871 11.2246C24.5652 10.993 25.2948 10.9568 25.9925 11.12C26.6902 11.2833 27.328 11.6393 27.8331 12.1477C28.3382 12.656 28.6902 13.2961 28.8489 13.9948C29.0076 14.6936 28.9667 15.4229 28.7308 16.0996L34.2714 21.6433C35.0912 21.3547 35.9847 21.3538 36.805 21.6408C37.6253 21.9278 38.3234 22.4856 38.7844 23.2224C39.2453 23.9591 39.4417 24.8308 39.341 25.6941C39.2404 26.5573 38.8489 27.3605 38.2308 27.9714C37.6051 28.601 36.7803 28.9937 35.8972 29.0826C35.0141 29.1715 34.1276 28.9511 33.389 28.4589C32.6504 27.9668 32.1056 27.2334 31.8476 26.3842C31.5896 25.535 31.6345 24.6225 31.9746 23.8027L26.8089 18.6339V32.2371C27.5941 32.6257 28.2224 33.2718 28.589 34.0675C28.9556 34.8632 29.0384 35.7605 28.8236 36.6099C28.6089 37.4593 28.1095 38.2094 27.4087 38.7352C26.7079 39.261 25.8481 39.5308 24.9726 39.4995C24.097 39.4682 23.2586 39.1378 22.5971 38.5633C21.9357 37.9889 21.4911 37.2051 21.3374 36.3425C21.1838 35.48 21.3304 34.5909 21.7528 33.8233C22.1753 33.0558 22.848 32.4562 23.6589 32.1246V18.3964C23.1911 18.2047 22.7658 17.9223 22.4076 17.5655C22.0494 17.2086 21.7654 16.7844 21.5719 16.3173C21.3785 15.8502 21.2794 15.3494 21.2804 14.8438C21.2813 14.3382 21.3824 13.8378 21.5777 13.3714L15.9121 7.70269L0.943313 22.6714C0.644256 22.9703 0.407022 23.3253 0.245165 23.7159C0.0833082 24.1065 0 24.5252 0 24.948C0 25.3708 0.0833082 25.7895 0.245165 26.1801C0.407022 26.5708 0.644256 26.9257 0.943313 27.2246L22.7746 49.0558C23.0735 49.3549 23.4284 49.5921 23.819 49.754C24.2096 49.9158 24.6283 49.9991 25.0511 49.9991C25.474 49.9991 25.8926 49.9158 26.2833 49.754C26.6739 49.5921 27.0288 49.3549 27.3277 49.0558L49.0558 27.3277C49.659 26.7236 49.9978 25.9048 49.9978 25.0511C49.9978 24.1974 49.659 23.3786 49.0558 22.7746" fill="#FFCCD8"/>
</svg>
