<svg width="50" height="24" viewBox="0 0 50 24" fill="none" xmlns="http://www.w3.org/2000/svg">
<path d="M31.2578 6.56122C30.4063 6.83466 29.7031 6.98114 28.9844 7.3034C28.4141 7.48895 27.8359 7.68426 27.1719 7.89911L27.125 7.90887C26.7969 8.02606 26.7656 8.03583 26.4609 7.59637C26.0938 7.07879 25.8281 6.74676 25.3203 6.43426C23.7813 5.49676 22.2969 5.7702 20.9141 6.89325C19.2578 8.23114 18.4063 10.2136 18.4297 12.6745C18.4531 15.1159 19.7891 17.1179 21.6484 17.4499C23.3672 17.7233 24.7578 17.0007 25.8516 15.4479C26.0156 15.194 26.1641 14.9304 26.3281 14.6374C26.3906 14.5397 26.4453 14.4323 26.5078 14.3151H21.8125C21.3047 14.3151 21.1797 13.9245 21.3516 13.4069C21.6641 12.4597 22.25 10.8776 22.5938 10.0866C22.6641 9.91083 22.8359 9.5202 23.1328 9.5202H31.0313C31.3828 8.21161 31.9531 6.89325 32.7188 5.64325C34.4922 2.72333 36.5703 1.19989 39.5312 0.565124C42.0156 0.0182492 44.3516 0.320984 46.4766 2.11786C48.3984 3.75848 49.5859 5.98505 49.9062 8.90497C50.3203 13.0163 49.3672 16.3561 47.0391 19.2175C45.5 21.2585 43.5312 22.5378 41.2656 23.1139C40.8281 23.2116 40.3984 23.2604 39.9766 23.3093C39.75 23.3288 39.5313 23.3581 39.3125 23.3874C37.1016 23.3288 35.0781 22.5378 33.375 20.7116C32.1797 19.4128 31.3516 17.821 30.9453 15.9753C30.6563 16.6882 30.3203 17.3815 29.8516 18.0358C28.1641 20.9264 25.875 22.7233 22.9844 23.2018C20.5938 23.6022 18.3828 23.0261 16.4297 21.1999C14.6328 19.4909 13.6094 17.2448 13.3438 14.4421C13.0234 11.1218 13.8047 8.05536 15.4063 5.52606C17.1406 2.69403 19.4297 0.897156 22.2266 0.262391C24.5156 -0.343078 26.7031 0.076844 28.6797 1.75653C29.9688 2.82098 30.8906 4.27606 31.5 6.04364C31.6484 6.31708 31.5469 6.47333 31.2578 6.56122ZM3.77344 7.10809C3.67579 7.10809 3.65157 7.0495 3.70001 6.95184L4.21172 6.13153C4.26016 6.04364 4.38204 5.98505 4.47969 5.98505H13.1719C13.2656 5.98505 13.2891 6.07294 13.2422 6.16083L12.8281 6.95184C12.7813 7.0495 12.6563 7.13739 12.5859 7.13739L3.77344 7.10809ZM0.0973495 9.91083C5.79283e-06 9.91083 -0.0243692 9.84247 0.0243808 9.75458L0.535553 8.93427C0.584303 8.84637 0.706021 8.77801 0.803131 8.77801H11.9063C12 8.77801 12.0469 8.87567 12.0234 8.96356L11.8281 9.69598C11.8047 9.81317 11.7109 9.88153 11.6094 9.88153L0.0973495 9.91083ZM5.91563 12.528C5.86719 12.6159 5.89141 12.7038 5.98829 12.7038L11.2969 12.7331C11.3672 12.7331 11.4688 12.6452 11.4688 12.528L11.5156 11.7956C11.5156 11.6686 11.4688 11.5807 11.3672 11.5807H6.50001C6.40235 11.5807 6.30547 11.6686 6.25626 11.7663L5.91563 12.528ZM45.0938 10.7702C45.0781 10.5163 45.0703 10.3015 45.0391 10.0866C44.6016 7.07879 42.3828 5.36981 40.0703 6.04364C37.8047 6.67841 36.3438 8.47528 35.8125 11.3366C35.375 13.7097 36.2969 16.112 38.0469 17.0886C39.3906 17.821 40.7266 17.7331 42.0156 16.903C43.9375 15.5749 44.9844 13.7097 45.1094 11.0925C45.1016 10.9753 45.1016 10.8679 45.0938 10.7702Z" fill="#FFCCD8"/>
</svg>
