<svg width="50" height="45" viewBox="0 0 50 45" fill="none" xmlns="http://www.w3.org/2000/svg">
<path d="M50 22.2688C50 18.9563 45.8521 15.8167 39.4917 13.8708C40.9604 7.38958 40.3083 2.23125 37.4333 0.579167C36.7367 0.189001 35.9483 -0.00739143 35.15 0.0104167V2.28125C35.6187 2.28125 35.9958 2.375 36.3125 2.54792C37.6979 3.34375 38.3 6.36875 37.8312 10.2625C37.7188 11.2208 37.5354 12.2292 37.3104 13.2583C35.1805 12.7451 33.0188 12.3741 30.8396 12.1479C29.5414 10.3569 28.125 8.65446 26.6 7.05208C29.9229 3.96458 33.0417 2.27292 35.1625 2.27292V0C32.3583 0 28.6896 1.99792 24.9792 5.4625C21.2708 2.02083 17.6 0.0416666 14.7979 0.0416666V2.3125C16.9083 2.3125 20.0375 3.99583 23.3604 7.0625C21.9333 8.5625 20.5063 10.2625 19.15 12.1479C16.9663 12.3716 14.8007 12.7461 12.6687 13.2688C12.4434 12.2933 12.2661 11.3074 12.1375 10.3146C11.6583 6.41875 12.25 3.39375 13.6271 2.58958C13.9312 2.40625 14.3292 2.32292 14.7979 2.32292V0.0520833C13.9437 0.0520833 13.1667 0.235417 12.4958 0.620833C9.63125 2.27292 8.98958 7.41875 10.4667 13.8813C4.12708 15.8396 0 18.9667 0 22.2688C0 25.5813 4.14792 28.7208 10.5083 30.6646C9.03958 37.1479 9.69167 42.3063 12.5667 43.9563C13.2292 44.3438 14.0042 44.5271 14.8583 44.5271C17.6625 44.5271 21.3312 42.5292 25.0417 39.0646C28.75 42.5083 32.4187 44.4854 35.2229 44.4854C36.0273 44.5024 36.8217 44.3054 37.525 43.9146C40.3896 42.2646 41.0312 37.1188 39.5542 30.6563C45.8729 28.7104 50 25.5708 50 22.2688ZM36.7292 15.4708C36.3333 16.833 35.8745 18.1761 35.3542 19.4958C34.5024 17.8391 33.5672 16.2266 32.5521 14.6646C34 14.8792 35.3958 15.1438 36.7313 15.4708H36.7292ZM32.0625 26.325C31.2994 27.6572 30.4799 28.9563 29.6062 30.2188C26.5484 30.4883 23.473 30.4918 20.4146 30.2292C18.6603 27.7233 17.1261 25.0703 15.8292 22.3C17.1241 19.5231 18.6518 16.8609 20.3958 14.3417C23.4529 14.0716 26.5276 14.0674 29.5854 14.3292C30.4312 15.5417 31.2583 16.8375 32.0521 18.2042C32.8271 19.5375 33.5312 20.8917 34.1729 22.2583C33.5241 23.6416 32.8201 24.9982 32.0625 26.325ZM35.3542 25C35.9042 26.3646 36.375 27.7313 36.7604 29.0563C35.4271 29.3833 34.0187 29.6583 32.5625 29.8708C33.5734 28.2946 34.5051 26.669 35.3542 25ZM25.0208 35.875C24.0729 34.8958 23.125 33.8063 22.1875 32.6125C23.1042 32.6542 24.0417 32.6854 24.9896 32.6854C25.9479 32.6854 26.8958 32.6646 27.8229 32.6125C26.9062 33.8063 25.9583 34.8958 25.0208 35.875ZM17.4375 29.8708C16.0328 29.6673 14.6383 29.399 13.2583 29.0667C13.6354 27.7521 14.1042 26.3958 14.6333 25.0417C15.0521 25.8542 15.4917 26.6708 15.9708 27.4875C16.45 28.3021 16.9375 29.0979 17.4375 29.8708ZM24.9687 8.6625C25.9167 9.64167 26.8646 10.7313 27.8021 11.925C26.8854 11.8833 25.9479 11.8521 25 11.8521C24.0417 11.8521 23.0938 11.8729 22.1667 11.925C23.0833 10.7313 24.0312 9.64167 24.9687 8.6625ZM17.4271 14.6667C16.4164 16.2394 15.4847 17.8616 14.6354 19.5271C14.1004 18.1989 13.6311 16.8452 13.2292 15.4708C14.5625 15.1542 15.9708 14.8792 17.4271 14.6667ZM8.20417 27.425C4.59583 25.8875 2.2625 23.8688 2.2625 22.2688C2.2625 20.6688 4.59583 18.6396 8.20417 17.1125C9.07917 16.7354 10.0375 16.3979 11.0271 16.0833C11.6083 18.0792 12.3729 20.1583 13.3187 22.2896C12.4258 24.2941 11.6705 26.3573 11.0583 28.4646C10.0905 28.1649 9.13799 27.818 8.20417 27.425ZM13.6875 41.9875C12.3021 41.1958 11.7 38.1667 12.1687 34.275C12.2812 33.3167 12.4646 32.3063 12.6896 31.2771C14.6854 31.7667 16.8667 32.1438 19.1604 32.3896C20.4587 34.1806 21.875 35.883 23.4 37.4854C20.0771 40.5729 16.9583 42.2646 14.8375 42.2646C14.4374 42.269 14.0424 42.1745 13.6875 41.9896V41.9875ZM37.8625 34.2229C38.3417 38.1167 37.75 41.1438 36.3729 41.9479C36.0687 42.1313 35.6708 42.2125 35.2021 42.2125C33.0917 42.2125 29.9625 40.5313 26.6396 37.4625C28.1582 35.8668 29.565 34.1683 30.85 32.3792C33.0337 32.1555 35.1993 31.781 37.3312 31.2583C37.5667 32.2875 37.7479 33.275 37.8625 34.2229ZM41.7854 27.425C40.9104 27.8021 39.9521 28.1396 38.9625 28.4542C38.3395 26.3361 37.5739 24.2626 36.6708 22.2479C37.6083 20.1292 38.3604 18.0604 38.9312 16.0729C39.9021 16.3736 40.8581 16.7205 41.7958 17.1125C45.4042 18.65 47.7375 20.6688 47.7375 22.2688C47.7271 23.8688 45.3937 25.8979 41.7854 27.425Z" fill="#FFCCD8"/>
<path d="M24.9896 26.9271C26.225 26.9271 27.4099 26.4364 28.2835 25.5627C29.1571 24.6891 29.6479 23.5043 29.6479 22.2688C29.6479 21.0333 29.1571 19.8485 28.2835 18.9749C27.4099 18.1013 26.225 17.6105 24.9896 17.6105C23.7541 17.6105 22.5692 18.1013 21.6956 18.9749C20.822 19.8485 20.3312 21.0333 20.3312 22.2688C20.3312 23.5043 20.822 24.6891 21.6956 25.5627C22.5692 26.4364 23.7541 26.9271 24.9896 26.9271Z" fill="#FFCCD8"/>
</svg>
