<svg width="50" height="40" viewBox="0 0 50 40" fill="none" xmlns="http://www.w3.org/2000/svg">
<path fill-rule="evenodd" clip-rule="evenodd" d="M10.3854 0C7.53125 0 5.42083 2.49792 5.51667 5.20417C5.60625 7.80833 5.48958 11.1771 4.64167 13.925C3.7875 16.6792 2.35 18.425 0 18.65V21.1812C2.35 21.4042 3.78958 23.15 4.63958 25.9062C5.48958 28.6542 5.60625 32.0229 5.51458 34.625C5.42083 37.3333 7.53125 39.8312 10.3854 39.8312H39.6187C42.4729 39.8312 44.5833 37.3333 44.4875 34.625C44.3979 32.0229 44.5146 28.6542 45.3625 25.9062C46.2146 23.15 47.65 21.4062 50 21.1812V18.65C47.65 18.425 46.2146 16.6792 45.3625 13.925C44.5146 11.175 44.3979 7.80625 44.4875 5.20417C44.5833 2.49583 42.4708 0 39.6187 0H10.3854ZM33.8958 24.5187C33.8958 28.2479 31.1146 30.5083 26.5 30.5083H18.6437C18.4189 30.5083 18.2032 30.419 18.0442 30.26C17.8852 30.101 17.7958 29.8853 17.7958 29.6604V10.1687C17.7964 9.94423 17.886 9.72909 18.0449 9.57053C18.2039 9.41196 18.4192 9.32292 18.6437 9.32292H26.4562C30.3042 9.32292 32.8312 11.4062 32.8312 14.6083C32.8312 16.8542 31.1313 18.8646 28.9667 19.2188V19.3354C31.9146 19.6583 33.8979 21.7 33.8979 24.5187H33.8958ZM25.6458 12.0083H21.1667V18.3375H24.9396C27.8562 18.3375 29.4646 17.1625 29.4646 15.0625C29.4646 13.0958 28.0812 12.0083 25.6458 12.0083ZM21.1667 20.8479V27.8208H25.8125C28.8479 27.8208 30.4583 26.6021 30.4583 24.3125C30.4583 22.0208 28.8042 20.8479 25.6167 20.8479H21.1667Z" fill="#FFCCD8"/>
</svg>
