<svg width="50" height="50" viewBox="0 0 50 50" fill="none" xmlns="http://www.w3.org/2000/svg">
<path d="M28.0725 15.6677C23.7762 15.6073 20.4417 13.1042 20.3735 7.97021C20.2421 3.25078 23.3965 -0.00517578 28.28 0.00419922C32.1182 -0.00908203 34.4025 2.00127 35.0452 4.43662L31.6683 5.15977C31 2.30039 26.9006 1.83877 25.0588 3.82705C24.2787 4.63291 23.8889 5.93838 23.8889 7.74297C23.8889 9.65801 24.2635 11.029 25.0415 11.8344C26.6864 13.5371 30.8335 13.906 31.7836 9.84023L35.0914 10.7806C34.3177 13.4495 32.2004 15.7256 28.0726 15.6677H28.0725ZM37.9851 15.6634H40.59L41.5005 11.6339H44.0588L43.1716 15.6634H45.7416L46.6521 11.6339H49.9713V9.36074H47.1706L47.8622 6.31279H49.9711V4.02959H48.3807L49.3028 0H46.6289L45.7416 4.02949H43.1946L44.105 0H41.5233L40.6129 4.02949H37.3281V6.3127H40.0943L39.4028 9.36074H37.3281V11.6339H38.8957L37.9851 15.6634ZM45.2344 6.31279L44.566 9.36074H42.0073L42.6873 6.31279H45.2344ZM17.7209 3.65117H15.1439C10.4145 3.65117 5.38269 9.19297 5.25404 12.9582L5.00818 32.7565H10.2516L10.4976 12.9143C10.4976 10.8749 13.408 8.28311 15.9318 8.28311H17.7209V3.65117ZM40.4393 39.7456C40.4393 41.8955 39.0638 43.8957 36.8589 44.7413C33.5091 46.0261 28.4156 43.696 28.6385 36.1845H0.000663168C-0.0755896 43.0737 6.43944 50 11.5364 50H34.6074C41.0225 49.4556 45.4711 45.5197 45.6906 39.8438L45.9365 18.7646H40.4393V39.7456Z" fill="#FFCCD8"/>
</svg>
