<svg width="50" height="50" viewBox="0 0 50 50" fill="none" xmlns="http://www.w3.org/2000/svg">
<path fill-rule="evenodd" clip-rule="evenodd" d="M0.439163 0.536667C0.595414 0.367266 0.785099 0.23211 0.996236 0.139738C1.20737 0.0473656 1.43537 -0.000215367 1.66583 7.32804e-07H48.3325C48.5631 0.000108136 48.7912 0.0480695 49.0023 0.140851C49.2134 0.233633 49.403 0.369216 49.559 0.539025C49.715 0.708834 49.8341 0.909173 49.9087 1.12737C49.9833 1.34557 50.0119 1.57688 49.9925 1.80667L46.6592 41.8067C46.6316 42.1312 46.5096 42.4405 46.3082 42.6964C46.1068 42.9523 45.8348 43.1436 45.5258 43.2467L25.5258 49.9133C25.184 50.0274 24.8143 50.0274 24.4725 49.9133L4.4725 43.2467C4.16307 43.1434 3.89075 42.9516 3.68929 42.695C3.48784 42.4385 3.3661 42.1284 3.33916 41.8033L0.0058296 1.80333C-0.0134258 1.57372 0.0151413 1.3426 0.0897269 1.12458C0.164312 0.90656 0.283296 0.706376 0.439163 0.536667ZM36.6658 10H13.3325V23.3333H33.3325V30.4667L24.9992 33.2433L16.6658 30.4667V26.6667H13.3325V32.8667L24.9992 36.7567L36.6658 32.8667V20H16.6658V13.3333H36.6658V10Z" fill="#FFCCD8"/>
</svg>
