<svg width="46" height="50" viewBox="0 0 46 50" fill="none" xmlns="http://www.w3.org/2000/svg">
<path d="M22.9167 49.9101C22.2042 49.9101 21.5417 49.7247 20.9229 49.4038L14.6125 45.783C13.6646 45.2788 14.1396 45.0955 14.425 45.0038C15.7042 44.5913 15.9417 44.4997 17.2708 43.7643C17.4125 43.6726 17.6042 43.7184 17.7458 43.8101L22.5854 46.608C22.7729 46.6997 23.0125 46.6997 23.1542 46.608L42.0854 36.0163C42.2729 35.9247 42.3687 35.7413 42.3687 35.5122V14.3747C42.3687 14.1455 42.275 13.9622 42.0854 13.8705L23.1542 3.32675C22.9646 3.23509 22.7271 3.23509 22.5854 3.32675L3.65417 13.8705C3.46458 13.9622 3.36875 14.1913 3.36875 14.3747V35.5122C3.36875 35.6955 3.46458 35.9247 3.65417 36.0163L8.825 38.9059C11.625 40.2809 13.3792 38.6768 13.3792 37.0726V16.2101C13.3792 15.9351 13.6167 15.6601 13.95 15.6601H16.3687C16.6542 15.6601 16.9375 15.8893 16.9375 16.2101V37.0705C16.9375 40.6934 14.8979 42.8018 11.3396 42.8018C10.2479 42.8018 9.39375 42.8018 6.975 41.6559L1.99375 38.9059C1.39351 38.5759 0.892257 38.0915 0.541764 37.503C0.191272 36.9144 0.00424558 36.243 0 35.558V14.4205C0 13.0455 0.758333 11.7622 1.99375 11.0747L20.925 0.480919C21.5413 0.164848 22.224 0 22.9167 0C23.6093 0 24.292 0.164848 24.9083 0.480919L43.8417 11.0726C45.075 11.7601 45.8333 13.0434 45.8333 14.4184V35.5559C45.8333 36.9309 45.075 38.2143 43.8417 38.9038L24.9083 49.4934C24.2797 49.7659 23.6018 49.9063 22.9167 49.9059V49.9101ZM28.7521 35.3747C20.45 35.3747 18.7417 31.708 18.7417 28.5893C18.7417 28.3143 18.9792 28.0393 19.3104 28.0393H21.7771C22.0625 28.0393 22.2979 28.2226 22.2979 28.4976C22.6792 30.9268 23.7708 32.1184 28.8 32.1184C32.7854 32.1184 34.4937 31.2476 34.4937 29.1851C34.4937 27.9934 34.0187 27.1226 27.8042 26.5268C22.6312 26.0205 19.4062 24.9226 19.4062 20.933C19.4062 17.2184 22.6313 15.0163 28.0417 15.0163C34.1146 15.0163 37.1042 17.0351 37.4833 21.4372C37.4791 21.5862 37.4289 21.7303 37.3396 21.8497C37.2458 21.9413 37.1042 22.033 36.9604 22.033H34.4937C34.3739 22.0301 34.2583 21.9883 34.1643 21.9139C34.0704 21.8395 34.0032 21.7365 33.9729 21.6205C33.4021 19.0997 31.9312 18.2726 28.0417 18.2726C23.675 18.2726 23.1542 19.7393 23.1542 20.8393C23.1542 22.1705 23.7708 22.583 29.6542 23.3163C35.4896 24.0497 38.2417 25.1038 38.2417 29.0455C38.1938 33.083 34.7792 35.3747 28.7521 35.3747Z" fill="#FFCCD8"/>
</svg>
