<svg width="50" height="38" viewBox="0 0 50 38" fill="none" xmlns="http://www.w3.org/2000/svg">
<path d="M8.33333 4.16667V25H18.75V16.6667C18.75 15.5616 19.189 14.5018 19.9704 13.7204C20.7518 12.939 21.8116 12.5 22.9167 12.5H33.3333C34.4384 12.5 35.4982 12.939 36.2796 13.7204C37.061 14.5018 37.5 15.5616 37.5 16.6667V25H41.6667V4.16667H8.33333ZM0 33.3333V29.1667H8.33333C7.22826 29.1667 6.16846 28.7277 5.38705 27.9463C4.60565 27.1649 4.16667 26.1051 4.16667 25V4.16667C4.16667 3.0616 4.60565 2.00179 5.38705 1.22039C6.16846 0.438987 7.22826 0 8.33333 0H41.6667C42.7717 0 43.8315 0.438987 44.6129 1.22039C45.3943 2.00179 45.8333 3.0616 45.8333 4.16667V25C45.8333 26.1051 45.3943 27.1649 44.6129 27.9463C43.8315 28.7277 42.7717 29.1667 41.6667 29.1667H50V33.3333H37.5C37.5 34.4384 37.061 35.4982 36.2796 36.2796C35.4982 37.061 34.4384 37.5 33.3333 37.5H22.9167C21.8116 37.5 20.7518 37.061 19.9704 36.2796C19.189 35.4982 18.75 34.4384 18.75 33.3333H0ZM23.9583 33.3333C23.6821 33.3333 23.4171 33.4431 23.2218 33.6384C23.0264 33.8338 22.9167 34.0987 22.9167 34.375C22.9167 34.6513 23.0264 34.9162 23.2218 35.1116C23.4171 35.3069 23.6821 35.4167 23.9583 35.4167C24.2346 35.4167 24.4996 35.3069 24.6949 35.1116C24.8903 34.9162 25 34.6513 25 34.375C25 34.0987 24.8903 33.8338 24.6949 33.6384C24.4996 33.4431 24.2346 33.3333 23.9583 33.3333ZM32.2917 33.3333C32.0154 33.3333 31.7504 33.4431 31.5551 33.6384C31.3597 33.8338 31.25 34.0987 31.25 34.375C31.25 34.6513 31.3597 34.9162 31.5551 35.1116C31.7504 35.3069 32.0154 35.4167 32.2917 35.4167C32.5679 35.4167 32.8329 35.3069 33.0282 35.1116C33.2236 34.9162 33.3333 34.6513 33.3333 34.375C33.3333 34.0987 33.2236 33.8338 33.0282 33.6384C32.8329 33.4431 32.5679 33.3333 32.2917 33.3333ZM27.0833 33.3333V35.4167H29.1667V33.3333H27.0833ZM22.9167 16.6667V31.25H33.3333V16.6667H22.9167Z" fill="#FFCCD8"/>
</svg>
