<svg width="50" height="50" viewBox="0 0 50 50" fill="none" xmlns="http://www.w3.org/2000/svg">
<g clip-path="url(#clip0_37_138)">
<path d="M0.474976 17.4376C0.474976 17.4376 -0.741691 16.548 0.718726 15.3646L4.12498 12.2855C4.12498 12.2855 5.09789 11.2501 6.12914 12.1521L37.5479 36.198V47.7271C37.5479 47.7271 37.5333 49.5396 35.2354 49.3396L0.472892 17.4355L0.474976 17.4376Z" fill="#FFCCD8"/>
<path d="M8.57498 24.8688L0.474985 32.3105C0.474985 32.3105 -0.358349 32.9355 0.474985 34.0542L4.2354 37.5125C4.2354 37.5125 5.12915 38.4813 6.4479 37.3771L15.0333 30.798L8.57498 24.8688ZM22.7916 24.9292L37.6458 13.4667L37.5479 1.99796C37.5479 1.99796 36.9125 -0.506207 34.7979 0.79796L15.0333 18.9792L22.7916 24.9292Z" fill="#FFCCD8"/>
<path d="M35.2333 49.3541C36.0958 50.2458 37.1417 49.9541 37.1417 49.9541L48.7167 44.1896C50.1979 43.1687 49.9896 41.9021 49.9896 41.9021V7.47498C49.9896 5.96248 48.4583 5.43956 48.4583 5.43956L38.425 0.549979C36.2333 -0.818771 34.7979 0.797895 34.7979 0.797895C34.7979 0.797895 36.6437 -0.545854 37.5479 1.9979V47.5187C37.5479 47.8312 37.4812 48.1375 37.35 48.4146C37.0854 48.9541 36.5125 49.4562 35.1375 49.2479L35.2333 49.3541Z" fill="#FFCCD8"/>
</g>
<defs>
<clipPath id="clip0_37_138">
<rect width="50" height="50" fill="white"/>
</clipPath>
</defs>
</svg>
