<svg width="92" height="92" viewBox="0 0 92 92" fill="none" xmlns="http://www.w3.org/2000/svg">
<path d="M76.6667 23.0001H61.3334V15.3334C61.3334 11.0784 57.9217 7.66675 53.6667 7.66675H38.3334C34.0784 7.66675 30.6667 11.0784 30.6667 15.3334V23.0001H15.3334C11.0784 23.0001 7.70502 26.4117 7.70502 30.6667L7.66669 72.8334C7.66669 77.0884 11.0784 80.5001 15.3334 80.5001H76.6667C80.9217 80.5001 84.3334 77.0884 84.3334 72.8334V30.6667C84.3334 26.4117 80.9217 23.0001 76.6667 23.0001ZM53.6667 23.0001H38.3334V15.3334H53.6667V23.0001Z" fill="#3A131D"/>
<line x1="29.5" y1="71" x2="29.5" y2="61" stroke="#FFCCD8"/>
<line x1="39.5" y1="62" x2="39.5" y2="52" stroke="#FFCCD8"/>
<line x1="48.5" y1="53" x2="48.5" y2="43" stroke="#FFCCD8"/>
<line x1="57.5" y1="44" x2="57.5" y2="34" stroke="#FFCCD8"/>
<line x1="29" y1="61.5" x2="39" y2="61.5" stroke="#FFCCD8"/>
<line x1="39" y1="52.5" x2="49" y2="52.5" stroke="#FFCCD8"/>
<line x1="48" y1="43.5" x2="58" y2="43.5" stroke="#FFCCD8"/>
<line x1="57" y1="34.5" x2="67" y2="34.5" stroke="#FFCCD8"/>
</svg>
