<svg width="201" height="109" viewBox="0 0 201 109" fill="none" xmlns="http://www.w3.org/2000/svg">
<path d="M74.6951 64.0938C79.4046 64.0938 83.2255 60.2655 83.2255 55.5469C83.2255 50.8283 79.4105 47 74.6951 47C69.9797 47 66.0581 50.8283 66.0581 55.5469C66.0581 60.2655 69.9915 64.0938 74.6951 64.0938ZM97.3362 60.1528C95.6905 58.1181 92.7084 57.8024 90.6718 59.4517L84.5998 64.3787C79.0124 68.9122 70.3707 68.9122 64.7785 64.3787L58.7207 59.4524C56.6888 57.8024 53.7008 58.1193 52.0564 60.1528C50.4095 62.1945 50.7223 65.1859 52.7566 66.836L58.8214 71.7588C60.2112 72.886 61.7396 73.7958 63.3212 74.5982L63.2146 103.979C63.2146 106.071 64.9183 107.778 67.0059 107.778H68.7949C70.8825 107.778 72.5862 106.071 72.5862 103.979V90.6843H76.3775V103.979C76.3775 106.071 78.0812 107.778 80.1688 107.778H81.9578C84.0453 107.778 85.7491 106.071 85.7491 103.979V74.5994C87.3307 73.7974 88.8591 72.8877 90.2477 71.7611L96.3137 66.8383C98.6631 65.1859 98.8764 62.1945 97.3362 60.1528Z" fill="#3A131D"/>
<path d="M68.7506 82.9274C68.3172 82.9274 67.9006 82.8708 67.5006 82.7574C67.1006 82.6374 66.7872 82.4874 66.5606 82.3074L66.9606 81.5474C67.1939 81.7141 67.4772 81.8474 67.8106 81.9474C68.1439 82.0474 68.4806 82.0974 68.8206 82.0974C69.6606 82.0974 70.0806 81.8574 70.0806 81.3774C70.0806 81.2174 70.0239 81.0908 69.9106 80.9974C69.7972 80.9041 69.6539 80.8374 69.4806 80.7974C69.3139 80.7508 69.0739 80.7008 68.7606 80.6474C68.3339 80.5808 67.9839 80.5041 67.7106 80.4174C67.4439 80.3308 67.2139 80.1841 67.0206 79.9774C66.8272 79.7708 66.7306 79.4808 66.7306 79.1074C66.7306 78.6274 66.9306 78.2441 67.3306 77.9574C67.7306 77.6641 68.2672 77.5174 68.9406 77.5174C69.2939 77.5174 69.6472 77.5608 70.0006 77.6474C70.3539 77.7341 70.6439 77.8508 70.8706 77.9974L70.4606 78.7574C70.0272 78.4774 69.5172 78.3374 68.9306 78.3374C68.5239 78.3374 68.2139 78.4041 68.0006 78.5374C67.7872 78.6708 67.6806 78.8474 67.6806 79.0674C67.6806 79.2408 67.7406 79.3774 67.8606 79.4774C67.9806 79.5774 68.1272 79.6508 68.3006 79.6974C68.4806 79.7441 68.7306 79.7974 69.0506 79.8574C69.4772 79.9308 69.8206 80.0108 70.0806 80.0974C70.3472 80.1774 70.5739 80.3174 70.7606 80.5174C70.9472 80.7174 71.0406 80.9974 71.0406 81.3574C71.0406 81.8374 70.8339 82.2208 70.4206 82.5074C70.0139 82.7874 69.4572 82.9274 68.7506 82.9274ZM74.5103 82.9274C73.9837 82.9274 73.5103 82.8108 73.0903 82.5774C72.6703 82.3441 72.3403 82.0241 72.1003 81.6174C71.867 81.2041 71.7503 80.7374 71.7503 80.2174C71.7503 79.6974 71.867 79.2341 72.1003 78.8274C72.3403 78.4141 72.6703 78.0941 73.0903 77.8674C73.5103 77.6341 73.9837 77.5174 74.5103 77.5174C75.037 77.5174 75.507 77.6341 75.9203 77.8674C76.3403 78.0941 76.667 78.4141 76.9003 78.8274C77.1403 79.2341 77.2603 79.6974 77.2603 80.2174C77.2603 80.7374 77.1403 81.2041 76.9003 81.6174C76.667 82.0241 76.3403 82.3441 75.9203 82.5774C75.507 82.8108 75.037 82.9274 74.5103 82.9274ZM74.5103 82.0874C74.8503 82.0874 75.1537 82.0108 75.4203 81.8574C75.6937 81.6974 75.907 81.4774 76.0603 81.1974C76.2137 80.9108 76.2903 80.5841 76.2903 80.2174C76.2903 79.8508 76.2137 79.5274 76.0603 79.2474C75.907 78.9608 75.6937 78.7408 75.4203 78.5874C75.1537 78.4341 74.8503 78.3574 74.5103 78.3574C74.1703 78.3574 73.8637 78.4341 73.5903 78.5874C73.3237 78.7408 73.1103 78.9608 72.9503 79.2474C72.797 79.5274 72.7203 79.8508 72.7203 80.2174C72.7203 80.5841 72.797 80.9108 72.9503 81.1974C73.1103 81.4774 73.3237 81.6974 73.5903 81.8574C73.8637 82.0108 74.1703 82.0874 74.5103 82.0874ZM81.418 77.5174C82.0913 77.5174 82.6246 77.7141 83.018 78.1074C83.418 78.4941 83.618 79.0641 83.618 79.8174V82.8674H82.658V79.9274C82.658 79.4141 82.5346 79.0274 82.288 78.7674C82.0413 78.5074 81.688 78.3774 81.228 78.3774C80.708 78.3774 80.298 78.5308 79.998 78.8374C79.698 79.1374 79.548 79.5708 79.548 80.1374V82.8674H78.588V77.5674H79.508V78.3674C79.7013 78.0941 79.9613 77.8841 80.288 77.7374C80.6213 77.5908 80.998 77.5174 81.418 77.5174Z" fill="#FFCCD8"/>
<path d="M176 30.7634C182.063 30.7634 186.938 25.9133 186.938 19.8817C186.938 13.8501 182.063 9 176 9C169.938 9 165.063 13.8501 165.063 19.8817C165.063 25.9133 169.938 30.7634 176 30.7634ZM188.5 83.6173V108.49H163.5V83.6173H151L165.875 43.9458C166.655 41.9027 168.042 40.1439 169.85 38.9029C171.658 37.6619 173.803 36.9973 176 36.9973C178.197 36.9973 180.342 37.6619 182.15 38.9029C183.958 40.1439 185.345 41.9027 186.125 43.9458L201 83.6173H188.5Z" fill="#3A131D"/>
<path d="M174.94 61.7449L172.6 68.7449H171.55L169.64 63.1549L167.73 68.7449H166.66L164.32 61.7449H165.35L167.24 67.4349L169.21 61.7449H170.13L172.06 67.4649L173.99 61.7449H174.94ZM176.033 63.4449H176.993V68.7449H176.033V63.4449ZM176.513 62.4249C176.326 62.4249 176.17 62.3649 176.043 62.2449C175.923 62.1249 175.863 61.9782 175.863 61.8049C175.863 61.6315 175.923 61.4849 176.043 61.3649C176.17 61.2382 176.326 61.1749 176.513 61.1749C176.7 61.1749 176.853 61.2349 176.973 61.3549C177.1 61.4682 177.163 61.6115 177.163 61.7849C177.163 61.9649 177.1 62.1182 176.973 62.2449C176.853 62.3649 176.7 62.4249 176.513 62.4249ZM180.766 62.0549C180.193 62.0549 179.906 62.3649 179.906 62.9849V63.4449H181.446V64.2349H179.926V68.7449H178.966V64.2349H178.066V63.4449H178.966V62.9749C178.966 62.4482 179.119 62.0315 179.426 61.7249C179.733 61.4182 180.163 61.2649 180.716 61.2649C180.929 61.2649 181.129 61.2915 181.316 61.3449C181.503 61.3982 181.663 61.4749 181.796 61.5749L181.506 62.3049C181.286 62.1382 181.039 62.0549 180.766 62.0549ZM187.063 66.1249C187.063 66.1982 187.057 66.2949 187.043 66.4149H182.743C182.803 66.8815 183.007 67.2582 183.353 67.5449C183.707 67.8249 184.143 67.9649 184.663 67.9649C185.297 67.9649 185.807 67.7515 186.193 67.3249L186.723 67.9449C186.483 68.2249 186.183 68.4382 185.823 68.5849C185.47 68.7315 185.073 68.8049 184.633 68.8049C184.073 68.8049 183.577 68.6915 183.143 68.4649C182.71 68.2315 182.373 67.9082 182.133 67.4949C181.9 67.0815 181.783 66.6149 181.783 66.0949C181.783 65.5815 181.897 65.1182 182.123 64.7049C182.357 64.2915 182.673 63.9715 183.073 63.7449C183.48 63.5115 183.937 63.3949 184.443 63.3949C184.95 63.3949 185.4 63.5115 185.793 63.7449C186.193 63.9715 186.503 64.2915 186.723 64.7049C186.95 65.1182 187.063 65.5915 187.063 66.1249ZM184.443 64.2049C183.983 64.2049 183.597 64.3449 183.283 64.6249C182.977 64.9049 182.797 65.2715 182.743 65.7249H186.143C186.09 65.2782 185.907 64.9149 185.593 64.6349C185.287 64.3482 184.903 64.2049 184.443 64.2049Z" fill="#FFCCD8"/>
<path d="M127.695 64.0938C132.405 64.0938 136.225 60.2655 136.225 55.5469C136.225 50.8283 132.411 47 127.695 47C122.98 47 119.058 50.8283 119.058 55.5469C119.058 60.2655 122.992 64.0938 127.695 64.0938ZM150.336 60.1528C148.691 58.1181 145.708 57.8024 143.672 59.4517L137.6 64.3787C132.012 68.9122 123.371 68.9122 117.779 64.3787L111.721 59.4524C109.689 57.8024 106.701 58.1193 105.056 60.1528C103.41 62.1945 103.722 65.1859 105.757 66.836L111.821 71.7588C113.211 72.886 114.74 73.7958 116.321 74.5982L116.215 103.979C116.215 106.071 117.918 107.778 120.006 107.778H121.795C123.882 107.778 125.586 106.071 125.586 103.979V90.6843H129.377V103.979C129.377 106.071 131.081 107.778 133.169 107.778H134.958C137.045 107.778 138.749 106.071 138.749 103.979V74.5994C140.331 73.7974 141.859 72.8877 143.248 71.7611L149.314 66.8383C151.663 65.1859 151.876 62.1945 150.336 60.1528Z" fill="#3A131D"/>
<path d="M121.751 82.9274C121.317 82.9274 120.901 82.8708 120.501 82.7574C120.101 82.6374 119.787 82.4874 119.561 82.3074L119.961 81.5474C120.194 81.7141 120.477 81.8474 120.811 81.9474C121.144 82.0474 121.481 82.0974 121.821 82.0974C122.661 82.0974 123.081 81.8574 123.081 81.3774C123.081 81.2174 123.024 81.0908 122.911 80.9974C122.797 80.9041 122.654 80.8374 122.481 80.7974C122.314 80.7508 122.074 80.7008 121.761 80.6474C121.334 80.5808 120.984 80.5041 120.711 80.4174C120.444 80.3308 120.214 80.1841 120.021 79.9774C119.827 79.7708 119.731 79.4808 119.731 79.1074C119.731 78.6274 119.931 78.2441 120.331 77.9574C120.731 77.6641 121.267 77.5174 121.941 77.5174C122.294 77.5174 122.647 77.5608 123.001 77.6474C123.354 77.7341 123.644 77.8508 123.871 77.9974L123.461 78.7574C123.027 78.4774 122.517 78.3374 121.931 78.3374C121.524 78.3374 121.214 78.4041 121.001 78.5374C120.787 78.6708 120.681 78.8474 120.681 79.0674C120.681 79.2408 120.741 79.3774 120.861 79.4774C120.981 79.5774 121.127 79.6508 121.301 79.6974C121.481 79.7441 121.731 79.7974 122.051 79.8574C122.477 79.9308 122.821 80.0108 123.081 80.0974C123.347 80.1774 123.574 80.3174 123.761 80.5174C123.947 80.7174 124.041 80.9974 124.041 81.3574C124.041 81.8374 123.834 82.2208 123.421 82.5074C123.014 82.7874 122.457 82.9274 121.751 82.9274ZM127.51 82.9274C126.984 82.9274 126.51 82.8108 126.09 82.5774C125.67 82.3441 125.34 82.0241 125.1 81.6174C124.867 81.2041 124.75 80.7374 124.75 80.2174C124.75 79.6974 124.867 79.2341 125.1 78.8274C125.34 78.4141 125.67 78.0941 126.09 77.8674C126.51 77.6341 126.984 77.5174 127.51 77.5174C128.037 77.5174 128.507 77.6341 128.92 77.8674C129.34 78.0941 129.667 78.4141 129.9 78.8274C130.14 79.2341 130.26 79.6974 130.26 80.2174C130.26 80.7374 130.14 81.2041 129.9 81.6174C129.667 82.0241 129.34 82.3441 128.92 82.5774C128.507 82.8108 128.037 82.9274 127.51 82.9274ZM127.51 82.0874C127.85 82.0874 128.154 82.0108 128.42 81.8574C128.694 81.6974 128.907 81.4774 129.06 81.1974C129.214 80.9108 129.29 80.5841 129.29 80.2174C129.29 79.8508 129.214 79.5274 129.06 79.2474C128.907 78.9608 128.694 78.7408 128.42 78.5874C128.154 78.4341 127.85 78.3574 127.51 78.3574C127.17 78.3574 126.864 78.4341 126.59 78.5874C126.324 78.7408 126.11 78.9608 125.95 79.2474C125.797 79.5274 125.72 79.8508 125.72 80.2174C125.72 80.5841 125.797 80.9108 125.95 81.1974C126.11 81.4774 126.324 81.6974 126.59 81.8574C126.864 82.0108 127.17 82.0874 127.51 82.0874ZM134.418 77.5174C135.091 77.5174 135.625 77.7141 136.018 78.1074C136.418 78.4941 136.618 79.0641 136.618 79.8174V82.8674H135.658V79.9274C135.658 79.4141 135.535 79.0274 135.288 78.7674C135.041 78.5074 134.688 78.3774 134.228 78.3774C133.708 78.3774 133.298 78.5308 132.998 78.8374C132.698 79.1374 132.548 79.5708 132.548 80.1374V82.8674H131.588V77.5674H132.508V78.3674C132.701 78.0941 132.961 77.8841 133.288 77.7374C133.621 77.5908 133.998 77.5174 134.418 77.5174Z" fill="#FFCCD8"/>
<path d="M20.375 23.6496C26.9629 23.6496 32.2604 18.3791 32.2604 11.8248C32.2604 5.27047 26.9629 0 20.375 0C13.7871 0 8.48958 5.27047 8.48958 11.8248C8.48958 18.3791 13.7871 23.6496 20.375 23.6496ZM33.9583 108.112V74.3272H40.75V43.9206C40.75 36.4879 34.6375 30.4066 27.1667 30.4066H13.5833C6.1125 30.4066 0 36.4879 0 43.9206V74.3272H6.79167V108.112H33.9583Z" fill="#3A131D"/>
<path d="M19.54 64L19.53 58.9L17 63.15H16.54L14.01 58.93V64H13.05V57H13.87L16.79 61.92L19.67 57H20.49L20.5 64H19.54ZM27.2508 61.38C27.2508 61.4533 27.2441 61.55 27.2308 61.67H22.9308C22.9908 62.1367 23.1941 62.5133 23.5408 62.8C23.8941 63.08 24.3308 63.22 24.8508 63.22C25.4841 63.22 25.9941 63.0067 26.3808 62.58L26.9108 63.2C26.6708 63.48 26.3708 63.6933 26.0108 63.84C25.6574 63.9867 25.2608 64.06 24.8208 64.06C24.2608 64.06 23.7641 63.9467 23.3308 63.72C22.8974 63.4867 22.5608 63.1633 22.3208 62.75C22.0874 62.3367 21.9708 61.87 21.9708 61.35C21.9708 60.8367 22.0841 60.3733 22.3108 59.96C22.5441 59.5467 22.8608 59.2267 23.2608 59C23.6674 58.7667 24.1241 58.65 24.6308 58.65C25.1374 58.65 25.5874 58.7667 25.9808 59C26.3808 59.2267 26.6908 59.5467 26.9108 59.96C27.1374 60.3733 27.2508 60.8467 27.2508 61.38ZM24.6308 59.46C24.1708 59.46 23.7841 59.6 23.4708 59.88C23.1641 60.16 22.9841 60.5267 22.9308 60.98H26.3308C26.2774 60.5333 26.0941 60.17 25.7808 59.89C25.4741 59.6033 25.0908 59.46 24.6308 59.46Z" fill="#FFCCD8"/>
</svg>
