<svg width="92" height="92" viewBox="0 0 92 92" fill="none" xmlns="http://www.w3.org/2000/svg">
<path d="M42.1667 30.6666H49.8334V34.4999H42.1667V30.6666ZM42.1667 15.3333H49.8334V19.1666H42.1667V15.3333ZM42.1667 38.3333H49.8334V42.1666H42.1667V38.3333Z" fill="#FFCCD8"/>
<path d="M80.5 46V34.5C68.8138 34.4976 57.4912 38.5636 48.4764 46H43.5237C34.5088 38.5636 23.1863 34.4976 11.5 34.5V46C10.4834 46 9.50833 46.4039 8.78944 47.1228C8.07055 47.8417 7.66669 48.8167 7.66669 49.8333V57.5C7.66669 58.5167 8.07055 59.4917 8.78944 60.2106C9.50833 60.9295 10.4834 61.3333 11.5 61.3333V76.6667C24.3113 76.655 36.6465 81.5205 46 90.275C55.3633 81.5361 67.6922 76.673 80.5 76.6667V61.3333C81.5167 61.3333 82.4917 60.9295 83.2106 60.2106C83.9295 59.4917 84.3334 58.5167 84.3334 57.5V49.8333C84.3334 48.8167 83.9295 47.8417 83.2106 47.1228C82.4917 46.4039 81.5167 46 80.5 46Z" fill="#3A131D"/>
<path d="M34.5 19.1667C36.6171 19.1667 38.3334 17.4504 38.3334 15.3333C38.3334 13.2162 36.6171 11.5 34.5 11.5C32.3829 11.5 30.6667 13.2162 30.6667 15.3333C30.6667 17.4504 32.3829 19.1667 34.5 19.1667Z" fill="#3A131D"/>
<path d="M57.5 19.1667C59.6171 19.1667 61.3334 17.4504 61.3334 15.3333C61.3334 13.2162 59.6171 11.5 57.5 11.5C55.3829 11.5 53.6667 13.2162 53.6667 15.3333C53.6667 17.4504 55.3829 19.1667 57.5 19.1667Z" fill="#3A131D"/>
<path d="M61.3334 30.6667H30.6667C27.6176 30.6636 24.6943 29.451 22.5383 27.295C20.3823 25.139 19.1697 22.2157 19.1667 19.1667V11.5C19.1697 8.45094 20.3823 5.52764 22.5383 3.37163C24.6943 1.21563 27.6176 0.00304449 30.6667 0L61.3334 0C64.3824 0.00304449 67.3057 1.21563 69.4617 3.37163C71.6177 5.52764 72.8303 8.45094 72.8334 11.5V19.1667C72.8303 22.2157 71.6177 25.139 69.4617 27.295C67.3057 29.451 64.3824 30.6636 61.3334 30.6667ZM30.6667 7.66667C29.6503 7.66768 28.6759 8.07188 27.9572 8.79055C27.2386 9.50922 26.8344 10.4836 26.8334 11.5V19.1667C26.8344 20.183 27.2386 21.1575 27.9572 21.8761C28.6759 22.5948 29.6503 22.999 30.6667 23H61.3334C62.3497 22.999 63.3241 22.5948 64.0428 21.8761C64.7615 21.1575 65.1657 20.183 65.1667 19.1667V11.5C65.1657 10.4836 64.7615 9.50922 64.0428 8.79055C63.3241 8.07188 62.3497 7.66768 61.3334 7.66667H30.6667Z" fill="#3A131D"/>
</svg>
