<svg width="92" height="92" viewBox="0 0 92 92" fill="none" xmlns="http://www.w3.org/2000/svg">
<path d="M46 46L11.684 32.292L13.8 82.7999H4.6L6.808 30.314L0 27.6L46 9.19995L92 27.6L46 46ZM46 23C43.47 23 41.4 24.012 41.4 25.3C41.4 26.588 43.47 27.6 46 27.6C48.53 27.6 50.6 26.588 50.6 25.3C50.6 24.012 48.53 23 46 23ZM46 50.5999L71.622 40.342C74.888 44.666 77.142 49.8639 77.878 55.5219C76.498 55.3379 75.072 55.2 73.6 55.2C61.87 55.2 51.612 61.5019 46 70.8859C43.1514 66.1054 39.1103 62.1465 34.2722 59.3969C29.4341 56.6472 23.9649 55.201 18.4 55.2C16.928 55.2 15.502 55.3379 14.122 55.5219C14.858 49.8639 17.112 44.666 20.378 40.342L46 50.5999Z" fill="#3A131D"/>
</svg>
