<svg width="61" height="61" viewBox="0 0 61 61" fill="none" xmlns="http://www.w3.org/2000/svg">
<path d="M54.4643 3.8125H6.53571C2.92746 3.8125 0 6.37402 0 9.53125V51.4688C0 54.626 2.92746 57.1875 6.53571 57.1875H54.4643C58.0725 57.1875 61 54.626 61 51.4688V9.53125C61 6.37402 58.0725 3.8125 54.4643 3.8125ZM37.7574 49.5268C36.6136 49.7055 36.1915 49.0859 36.1915 48.5736C36.1915 47.9303 36.2188 44.642 36.2188 41.9852C36.2188 40.1266 35.5107 38.9471 34.6801 38.3275C39.7181 37.8391 45.0284 37.2314 45.0284 29.6184C45.0284 27.45 44.1433 26.3658 42.7 24.9719C42.9315 24.4596 43.7076 22.3508 42.4685 19.6105C40.5759 19.0982 36.246 21.7432 36.246 21.7432C34.4487 21.3023 32.5016 21.076 30.5817 21.076C28.6618 21.076 26.7147 21.3023 24.9174 21.7432C24.9174 21.7432 20.5875 19.0982 18.6949 19.6105C17.4558 22.3389 18.2183 24.4477 18.4634 24.9719C17.0201 26.3658 16.3393 27.45 16.3393 29.6184C16.3393 37.1957 21.4181 37.8391 26.456 38.3275C25.8025 38.8398 25.217 39.7215 25.0127 40.9844C23.7192 41.4967 20.4105 42.3783 18.4362 39.3283C17.1971 37.4459 14.9641 37.291 14.9641 37.291C12.7583 37.2672 14.8143 38.5063 14.8143 38.5063C16.2848 39.102 17.3196 41.3895 17.3196 41.3895C18.6404 44.9279 24.9583 43.7365 24.9583 43.7365C24.9583 45.3926 24.9855 48.0852 24.9855 48.5736C24.9855 49.0859 24.577 49.7055 23.4196 49.5268C14.433 46.8938 8.14241 39.4117 8.14241 30.6668C8.14241 19.7297 17.7009 11.4256 30.2004 11.4256C42.7 11.4256 52.8304 19.7297 52.8304 30.6668C52.844 39.4117 46.744 46.9057 37.7574 49.5268ZM24.4 42.2473C24.1413 42.2949 23.8962 42.1996 23.869 42.0447C23.8417 41.866 24.0188 41.7111 24.2775 41.6635C24.5362 41.6396 24.7812 41.735 24.8085 41.8898C24.8493 42.0447 24.6723 42.1996 24.4 42.2473ZM23.1065 42.14C23.1065 42.2949 22.9022 42.426 22.6299 42.426C22.3304 42.4498 22.1261 42.3188 22.1261 42.14C22.1261 41.9852 22.3304 41.8541 22.6027 41.8541C22.8614 41.8303 23.1065 41.9613 23.1065 42.14ZM21.2411 42.009C21.1866 42.1639 20.9143 42.2354 20.6828 42.1639C20.4241 42.1162 20.2471 41.9375 20.3016 41.7826C20.356 41.6277 20.6283 41.5563 20.8598 41.6039C21.1321 41.6754 21.3092 41.8541 21.2411 42.009ZM19.5663 41.3656C19.4438 41.4967 19.185 41.4729 18.9808 41.2941C18.7766 41.1393 18.7221 40.9129 18.8583 40.8057C18.9808 40.6746 19.2395 40.6984 19.4438 40.8771C19.6208 41.032 19.6888 41.2703 19.5663 41.3656ZM18.3272 40.2814C18.2047 40.3529 17.9732 40.2814 17.8234 40.1027C17.6737 39.924 17.6737 39.7215 17.8234 39.6381C17.9732 39.5309 18.2047 39.6143 18.3272 39.793C18.477 39.9717 18.477 40.1861 18.3272 40.2814ZM17.4422 39.1258C17.3196 39.233 17.1154 39.1734 16.9656 39.0543C16.8158 38.8994 16.7886 38.7207 16.9112 38.6373C17.0337 38.5301 17.2379 38.5896 17.3877 38.7088C17.5375 38.8637 17.5647 39.0424 17.4422 39.1258ZM16.5299 38.2441C16.4754 38.3514 16.2984 38.3752 16.1487 38.2918C15.9717 38.2203 15.89 38.0893 15.9444 37.982C15.9989 37.9105 16.1487 37.8748 16.3257 37.9344C16.5027 38.0178 16.5844 38.1488 16.5299 38.2441Z" fill="#FFCCD8"/>
</svg>
