<svg width="92" height="92" viewBox="0 0 92 92" fill="none" xmlns="http://www.w3.org/2000/svg">
<path fill-rule="evenodd" clip-rule="evenodd" d="M26.8333 7.66675C21.75 7.66675 16.8749 9.68609 13.2804 13.2805C9.686 16.875 7.66666 21.7501 7.66666 26.8334V65.1668C7.66666 70.2501 9.686 75.1252 13.2804 78.7196C16.8749 82.3141 21.75 84.3334 26.8333 84.3334H65.1667C70.25 84.3334 75.1251 82.3141 78.7195 78.7196C82.314 75.1252 84.3333 70.2501 84.3333 65.1668V26.8334C84.3333 21.7501 82.314 16.875 78.7195 13.2805C75.1251 9.68609 70.25 7.66675 65.1667 7.66675H26.8333ZM60.2983 40.9554C60.6427 40.5879 60.9112 40.1562 61.0887 39.685C61.2662 39.2137 61.3491 38.7121 61.3327 38.2087C61.3164 37.7054 61.201 37.2102 60.9933 36.7515C60.7855 36.2927 60.4895 35.8794 60.122 35.5351C59.7545 35.1908 59.3228 34.9222 58.8515 34.7447C58.3802 34.5672 57.8786 34.4843 57.3753 34.5007C56.872 34.517 56.3768 34.6324 55.9181 34.8401C55.4593 35.0479 55.046 35.3439 54.7017 35.7114L42.8835 48.3231L37.0453 43.1366C36.2804 42.5007 35.2983 42.1871 34.3064 42.2619C33.3145 42.3367 32.3906 42.7942 31.7297 43.5376C31.0689 44.2811 30.7229 45.2523 30.7649 46.2461C30.8069 47.2399 31.2335 48.1785 31.9547 48.8636L40.5797 56.5303C41.326 57.1932 42.3014 57.5388 43.2986 57.4937C44.2958 57.4486 45.2361 57.0163 45.9195 56.2887L60.2945 40.9554H60.2983Z" fill="#3A131D"/>
</svg>
