<svg width="15" height="8" viewBox="0 0 15 8" fill="none" xmlns="http://www.w3.org/2000/svg">
<path d="M6.54 7L6.53 1.9L4 6.15H3.54L1.01 1.93V7H0.05V-4.76837e-07H0.87L3.79 4.92L6.67 -4.76837e-07H7.49L7.5 7H6.54ZM14.2508 4.38C14.2508 4.45333 14.2441 4.55 14.2308 4.67H9.93078C9.99078 5.13667 10.1941 5.51333 10.5408 5.8C10.8941 6.08 11.3308 6.22 11.8508 6.22C12.4841 6.22 12.9941 6.00667 13.3808 5.58L13.9108 6.2C13.6708 6.48 13.3708 6.69333 13.0108 6.84C12.6574 6.98667 12.2608 7.06 11.8208 7.06C11.2608 7.06 10.7641 6.94667 10.3308 6.72C9.89745 6.48667 9.56078 6.16333 9.32078 5.75C9.08745 5.33667 8.97078 4.87 8.97078 4.35C8.97078 3.83667 9.08411 3.37333 9.31078 2.96C9.54411 2.54667 9.86078 2.22667 10.2608 2C10.6674 1.76667 11.1241 1.65 11.6308 1.65C12.1374 1.65 12.5874 1.76667 12.9808 2C13.3808 2.22667 13.6908 2.54667 13.9108 2.96C14.1374 3.37333 14.2508 3.84667 14.2508 4.38ZM11.6308 2.46C11.1708 2.46 10.7841 2.6 10.4708 2.88C10.1641 3.16 9.98411 3.52667 9.93078 3.98H13.3308C13.2774 3.53333 13.0941 3.17 12.7808 2.89C12.4741 2.60333 12.0908 2.46 11.6308 2.46Z" fill="#FFCCD8"/>
</svg>
