<svg width="18" height="6" viewBox="0 0 18 6" fill="none" xmlns="http://www.w3.org/2000/svg">
<path d="M2.75056 5.92743C2.31722 5.92743 1.90056 5.87076 1.50056 5.75743C1.10056 5.63743 0.787223 5.48743 0.560557 5.30743L0.960557 4.54743C1.19389 4.7141 1.47722 4.84743 1.81056 4.94743C2.14389 5.04743 2.48056 5.09743 2.82056 5.09743C3.66056 5.09743 4.08056 4.85743 4.08056 4.37743C4.08056 4.21743 4.02389 4.09076 3.91056 3.99743C3.79722 3.9041 3.65389 3.83743 3.48056 3.79743C3.31389 3.75076 3.07389 3.70076 2.76056 3.64743C2.33389 3.58076 1.98389 3.5041 1.71056 3.41743C1.44389 3.33076 1.21389 3.1841 1.02056 2.97743C0.827223 2.77076 0.730557 2.48076 0.730557 2.10743C0.730557 1.62743 0.930557 1.2441 1.33056 0.957431C1.73056 0.664098 2.26722 0.517431 2.94056 0.517431C3.29389 0.517431 3.64722 0.560765 4.00056 0.647431C4.35389 0.734098 4.64389 0.850765 4.87056 0.997431L4.46056 1.75743C4.02722 1.47743 3.51722 1.33743 2.93056 1.33743C2.52389 1.33743 2.21389 1.4041 2.00056 1.53743C1.78722 1.67076 1.68056 1.84743 1.68056 2.06743C1.68056 2.24076 1.74056 2.37743 1.86056 2.47743C1.98056 2.57743 2.12722 2.65076 2.30056 2.69743C2.48056 2.7441 2.73056 2.79743 3.05056 2.85743C3.47722 2.93076 3.82056 3.01076 4.08056 3.09743C4.34722 3.17743 4.57389 3.31743 4.76056 3.51743C4.94722 3.71743 5.04056 3.99743 5.04056 4.35743C5.04056 4.83743 4.83389 5.22076 4.42056 5.50743C4.01389 5.78743 3.45722 5.92743 2.75056 5.92743ZM8.51032 5.92743C7.98366 5.92743 7.51032 5.81076 7.09032 5.57743C6.67032 5.3441 6.34032 5.0241 6.10032 4.61743C5.86699 4.2041 5.75032 3.73743 5.75032 3.21743C5.75032 2.69743 5.86699 2.2341 6.10032 1.82743C6.34032 1.4141 6.67032 1.0941 7.09032 0.867432C7.51032 0.634098 7.98366 0.517431 8.51032 0.517431C9.03699 0.517431 9.50699 0.634098 9.92032 0.867432C10.3403 1.0941 10.667 1.4141 10.9003 1.82743C11.1403 2.2341 11.2603 2.69743 11.2603 3.21743C11.2603 3.73743 11.1403 4.2041 10.9003 4.61743C10.667 5.0241 10.3403 5.3441 9.92032 5.57743C9.50699 5.81076 9.03699 5.92743 8.51032 5.92743ZM8.51032 5.08743C8.85032 5.08743 9.15366 5.01076 9.42032 4.85743C9.69366 4.69743 9.90699 4.47743 10.0603 4.19743C10.2137 3.91076 10.2903 3.5841 10.2903 3.21743C10.2903 2.85076 10.2137 2.52743 10.0603 2.24743C9.90699 1.96076 9.69366 1.74076 9.42032 1.58743C9.15366 1.4341 8.85032 1.35743 8.51032 1.35743C8.17032 1.35743 7.86366 1.4341 7.59032 1.58743C7.32366 1.74076 7.11032 1.96076 6.95032 2.24743C6.79699 2.52743 6.72032 2.85076 6.72032 3.21743C6.72032 3.5841 6.79699 3.91076 6.95032 4.19743C7.11032 4.47743 7.32366 4.69743 7.59032 4.85743C7.86366 5.01076 8.17032 5.08743 8.51032 5.08743ZM15.418 0.517431C16.0913 0.517431 16.6246 0.714098 17.018 1.10743C17.418 1.4941 17.618 2.0641 17.618 2.81743V5.86743H16.658V2.92743C16.658 2.4141 16.5346 2.02743 16.288 1.76743C16.0413 1.50743 15.688 1.37743 15.228 1.37743C14.708 1.37743 14.298 1.53076 13.998 1.83743C13.698 2.13743 13.548 2.57076 13.548 3.13743V5.86743H12.588V0.567431H13.508V1.36743C13.7013 1.0941 13.9613 0.884098 14.288 0.737432C14.6213 0.590765 14.998 0.517431 15.418 0.517431Z" fill="#FFCCD8"/>
</svg>
