<svg width="50" height="100" viewBox="0 0 50 100" fill="none" xmlns="http://www.w3.org/2000/svg">
<path d="M25 21.7634C31.0625 21.7634 35.9375 16.9133 35.9375 10.8817C35.9375 4.85013 31.0625 0 25 0C18.9375 0 14.0625 4.85013 14.0625 10.8817C14.0625 16.9133 18.9375 21.7634 25 21.7634ZM37.5 74.6173V99.4898H12.5V74.6173H0L14.875 34.9458C15.6553 32.9027 17.0416 31.1439 18.8499 29.9029C20.6583 28.6619 22.8032 27.9973 25 27.9973C27.1968 27.9973 29.3417 28.6619 31.1501 29.9029C32.9584 31.1439 34.3447 32.9027 35.125 34.9458L50 74.6173H37.5Z" fill="#3A131D"/>
</svg>
