<svg width="48" height="61" viewBox="0 0 48 61" fill="none" xmlns="http://www.w3.org/2000/svg">
<path d="M23.6951 17.0938C28.4046 17.0938 32.2255 13.2655 32.2255 8.54692C32.2255 3.82831 28.4105 0 23.6951 0C18.9797 0 15.0581 3.82831 15.0581 8.54692C15.0581 13.2655 18.9915 17.0938 23.6951 17.0938ZM46.3362 13.1528C44.6905 11.1181 41.7084 10.8024 39.6718 12.4517L33.5998 17.3787C28.0124 21.9122 19.3707 21.9122 13.7785 17.3787L7.72074 12.4524C5.68885 10.8024 2.70084 11.1193 1.05637 13.1528C-0.590472 15.1945 -0.27769 18.1859 1.75657 19.836L7.82145 24.7588C9.21119 25.886 10.7396 26.7958 12.3212 27.5982L12.2146 56.9795C12.2146 59.0711 13.9183 60.7781 16.0059 60.7781H17.7949C19.8825 60.7781 21.5862 59.0711 21.5862 56.9795V43.6843H25.3775V56.9795C25.3775 59.0711 27.0812 60.7781 29.1688 60.7781H30.9578C33.0453 60.7781 34.7491 59.0711 34.7491 56.9795V27.5994C36.3307 26.7974 37.8591 25.8877 39.2477 24.7611L45.3137 19.8383C47.6631 18.1859 47.8764 15.1945 46.3362 13.1528Z" fill="#3A131D"/>
</svg>
