<svg width="24" height="8" viewBox="0 0 24 8" fill="none" xmlns="http://www.w3.org/2000/svg">
<path d="M10.94 0.744873L8.6 7.74487H7.55L5.64 2.15487L3.73 7.74487H2.66L0.32 0.744873H1.35L3.24 6.43487L5.21 0.744873H6.13L8.06 6.46487L9.99 0.744873H10.94ZM12.033 2.44487H12.993V7.74487H12.033V2.44487ZM12.513 1.42487C12.3264 1.42487 12.1697 1.36487 12.043 1.24487C11.923 1.12487 11.863 0.978206 11.863 0.804873C11.863 0.63154 11.923 0.484873 12.043 0.364873C12.1697 0.238206 12.3264 0.174873 12.513 0.174873C12.6997 0.174873 12.853 0.234873 12.973 0.354873C13.0997 0.468206 13.163 0.611539 13.163 0.784873C13.163 0.964873 13.0997 1.11821 12.973 1.24487C12.853 1.36487 12.6997 1.42487 12.513 1.42487ZM16.766 1.05487C16.1927 1.05487 15.906 1.36487 15.906 1.98487V2.44487H17.446V3.23487H15.926V7.74487H14.966V3.23487H14.066V2.44487H14.966V1.97487C14.966 1.44821 15.1193 1.03154 15.426 0.724873C15.7327 0.418206 16.1627 0.264873 16.716 0.264873C16.9293 0.264873 17.1293 0.29154 17.316 0.344873C17.5027 0.398206 17.6627 0.474873 17.796 0.574873L17.506 1.30487C17.286 1.13821 17.0393 1.05487 16.766 1.05487ZM23.0633 5.12487C23.0633 5.19821 23.0566 5.29487 23.0433 5.41487H18.7433C18.8033 5.88154 19.0066 6.25821 19.3533 6.54487C19.7066 6.82487 20.1433 6.96487 20.6633 6.96487C21.2966 6.96487 21.8066 6.75154 22.1933 6.32487L22.7233 6.94487C22.4833 7.22487 22.1833 7.43821 21.8233 7.58487C21.4699 7.73154 21.0733 7.80487 20.6333 7.80487C20.0733 7.80487 19.5766 7.69154 19.1433 7.46487C18.7099 7.23154 18.3733 6.90821 18.1333 6.49487C17.8999 6.08154 17.7833 5.61487 17.7833 5.09487C17.7833 4.58154 17.8966 4.11821 18.1233 3.70487C18.3566 3.29154 18.6733 2.97154 19.0733 2.74487C19.4799 2.51154 19.9366 2.39487 20.4433 2.39487C20.9499 2.39487 21.3999 2.51154 21.7933 2.74487C22.1933 2.97154 22.5033 3.29154 22.7233 3.70487C22.9499 4.11821 23.0633 4.59154 23.0633 5.12487ZM20.4433 3.20487C19.9833 3.20487 19.5966 3.34487 19.2833 3.62487C18.9766 3.90487 18.7966 4.27154 18.7433 4.72487H22.1433C22.0899 4.27821 21.9066 3.91487 21.5933 3.63487C21.2866 3.34821 20.9033 3.20487 20.4433 3.20487Z" fill="#FFCCD8"/>
</svg>
