<svg width="740" height="382" viewBox="0 0 740 382" fill="none" xmlns="http://www.w3.org/2000/svg">
<path d="M465.838 78.5359C464.213 114.082 429.251 141.319 403.063 142.964C368.462 145.138 343.733 113.952 340.288 78.5359C337.303 47.8538 348.206 48.3109 356.325 35.5222C366.164 20.0261 384.5 11.4641 403.063 11.4641C437.733 11.4641 468.023 30.7113 465.838 78.5359Z" fill="#D53B5E"/>
<path d="M427.391 200.524H378.734V139.646H427.391V200.524Z" fill="#F3B6AB"/>
<path d="M457.717 104.137C466.396 90.974 477.438 90.3972 482.051 105.964C486.661 121.533 471.441 134.342 459.051 129.615C446.659 124.888 457.717 104.137 457.717 104.137Z" fill="#F3B6AB"/>
<path d="M467.963 104.481C473.776 103.418 476.755 120.729 464.006 121.3L466.628 115.259L464.168 110.235L467.963 104.481Z" fill="#ED9099"/>
<path d="M462.099 123.674C469.531 115.757 464.167 110.235 464.167 110.235C464.167 110.235 471.241 95.7366 474.075 106.848" stroke="#DF7F85" stroke-width="0.666667" stroke-miterlimit="10"/>
<path d="M348.002 104.137C339.322 90.974 328.28 90.3972 323.669 105.964C319.058 121.533 334.278 134.342 346.669 129.615C359.06 124.888 348.002 104.137 348.002 104.137Z" fill="#F3B6AB"/>
<path d="M337.757 104.481C331.944 103.418 328.963 120.729 341.714 121.3L339.092 115.259L341.551 110.235L337.757 104.481Z" fill="#ED9099"/>
<path d="M343.62 123.674C336.188 115.757 341.552 110.235 341.552 110.235C341.552 110.235 334.479 95.7366 331.643 106.848" stroke="#DF7F85" stroke-width="0.666667" stroke-miterlimit="10"/>
<path d="M427.391 140.992V163.64C409.906 187.318 378.734 179.619 378.734 179.619L379.28 140.992H427.391Z" fill="#DF7F85"/>
<path d="M403.062 166.941C374.016 166.941 350.471 143.41 350.471 114.381V75.9712C350.471 56.3649 366.374 40.4716 385.992 40.4716H420.132C439.75 40.4716 455.654 56.3649 455.654 75.9712V114.381C455.654 143.41 432.108 166.941 403.062 166.941Z" fill="#F3B6AB"/>
<path d="M411.155 121.252C411.155 125.718 407.532 129.339 403.062 129.339C398.595 129.339 394.972 125.718 394.972 121.252" stroke="#D53B5E" stroke-width="1.33333" stroke-miterlimit="10"/>
<path d="M356.027 42.8215C356.027 42.8215 346.816 27.5627 358.353 14.107C358.353 14.107 366.643 29.4464 356.027 42.8215Z" fill="#D53B5E"/>
<path d="M360.707 39.1976C360.707 39.1976 347.88 51.5781 332.181 43.3415C332.181 43.3415 345.292 31.8424 360.707 39.1976Z" fill="#D53B5E"/>
<path d="M382.178 102.386C382.178 106.732 380.326 110.255 378.041 110.255C375.757 110.255 373.904 106.732 373.904 102.386C373.904 98.0399 375.757 94.5173 378.041 94.5173C380.326 94.5173 382.178 98.0399 382.178 102.386Z" fill="#33334F"/>
<path d="M397.05 101.801C397.05 113.474 387.583 122.937 375.902 122.937C364.222 122.937 354.753 113.474 354.753 101.801C354.753 90.128 364.222 80.6649 375.902 80.6649C387.583 80.6649 397.05 90.128 397.05 101.801Z" stroke="#2E2E46" stroke-width="5.33333" stroke-miterlimit="10"/>
<path d="M432.221 102.386C432.221 106.732 430.369 110.255 428.083 110.255C425.799 110.255 423.947 106.732 423.947 102.386C423.947 98.0399 425.799 94.5173 428.083 94.5173C430.369 94.5173 432.221 98.0399 432.221 102.386Z" fill="#33334F"/>
<path d="M451.371 101.801C451.371 113.474 441.903 122.937 430.222 122.937C418.543 122.937 409.073 113.474 409.073 101.801C409.073 90.128 418.543 80.6649 430.222 80.6649C441.903 80.6649 451.371 90.128 451.371 101.801Z" stroke="#2E2E46" stroke-width="5.33333" stroke-miterlimit="10"/>
<path d="M356.989 55.4719C356.989 55.4719 390.4 37.869 412.601 50.6272C434.801 63.3854 437.299 89.733 459.222 82.9143C459.222 82.9143 475.872 75.5885 457.557 50.0722C439.243 24.557 426.711 19.5643 402.867 25.112C379.022 30.6586 363.507 34.9722 356.989 55.4719Z" fill="#D53B5E"/>
<path d="M355.712 55.2185C355.712 55.2185 366.741 40.6038 382.178 36.7407C397.615 32.8775 414.691 51.8548 414.691 51.8548C414.691 51.8548 375.138 46.219 355.712 55.2185Z" fill="#B32C4F"/>
<path d="M350.552 73.6018C350.552 73.6018 354.272 100.725 350.552 117.279C350.552 117.279 345.114 75.2199 350.552 73.6018Z" fill="#D53B5E"/>
<path d="M455.272 73.6018C455.272 73.6018 451.552 100.725 455.272 117.279C455.272 117.279 460.709 75.2199 455.272 73.6018Z" fill="#D53B5E"/>
<path d="M387.469 71.4848C381.73 68.7392 371.523 65.726 362.067 72.4577C360.481 73.5872 361.084 76.0792 363.003 76.4101C366.036 76.9335 370.388 77.4743 375.315 77.4428C379.145 77.4188 383.678 76.4764 387.062 75.607C389.051 75.0955 389.322 72.3706 387.469 71.4848Z" fill="#D53B5E"/>
<path d="M442.886 71.4848C437.147 68.7392 426.94 65.726 417.484 72.4577C415.899 73.5872 416.502 76.0792 418.42 76.4101C421.453 76.9335 425.806 77.4743 430.734 77.4428C434.562 77.4188 439.095 76.4764 442.479 75.607C444.468 75.0955 444.739 72.3706 442.886 71.4848Z" fill="#D53B5E"/>
<path d="M420.852 140.236C420.306 141.209 419.662 142.227 418.78 143.24C415.968 146.622 411.194 149.871 403.016 150.02L403.003 150.056L402.403 150.046L402.38 149.997C394.711 149.845 389.985 146.962 387.136 143.779C386.032 142.583 385.194 141.319 384.592 140.181C383.23 137.568 382.875 135.513 382.875 135.513L422.586 135.588C422.586 135.588 422.259 137.641 420.852 140.236Z" fill="#E23C5E"/>
<path d="M420.852 140.236C420.306 141.209 419.662 142.227 418.78 143.24C409.665 139.237 398.7 138.4 387.136 143.779C386.032 142.583 385.194 141.319 384.592 140.181C383.23 137.568 382.875 135.513 382.875 135.513L422.586 135.588C422.586 135.588 422.259 137.641 420.852 140.236Z" fill="#33334F"/>
<path d="M571.861 351.739L215.853 352.109C215.853 352.109 222.495 338.223 232.055 319.822C232.762 318.461 233.492 317.068 234.232 315.654C247.288 290.766 264.851 259.328 278.559 242.276C294.347 222.645 331.651 208.65 356.989 200.999C371.753 196.549 382.446 194.253 382.446 194.253H423.343C423.343 194.253 432.946 196.31 446.513 200.324C471.829 207.8 509.677 223.145 527.229 242.276C531.084 246.476 534.71 251.557 538.107 257.195C559.709 293.073 571.861 351.739 571.861 351.739Z" fill="#52F769" fill-opacity="0.2"/>
<g opacity="0.5">
<g opacity="0.5">
<path opacity="0.5" d="M571.861 351.739L215.853 352.109C215.853 352.109 222.495 338.223 232.055 319.821C409.711 372.014 503.331 286.48 524.697 263.327C528.146 259.588 532.935 257.338 538.021 257.197L538.107 257.195C559.709 293.073 571.861 351.739 571.861 351.739Z" fill="#16AB2B" fill-opacity="0.2"/>
</g>
</g>
<path d="M397.477 105.395H408.647" stroke="#2E2E46" stroke-width="5.33333" stroke-miterlimit="10"/>
<path d="M446.513 200.321C402.443 248.778 356.989 201.005 356.989 201.005C371.755 196.544 382.45 194.248 382.45 194.248H423.346C423.346 194.248 432.948 196.312 446.513 200.321Z" fill="#F3B6AB"/>
<path d="M305.76 296.912V352.174" stroke="#F68400" stroke-width="4" stroke-miterlimit="10"/>
<path d="M305.76 332.134L290.912 313.214" stroke="#F68400" stroke-width="4" stroke-miterlimit="10"/>
<path d="M499.358 296.912V352.174" stroke="#16AB2B" stroke-opacity="0.5" stroke-width="4" stroke-miterlimit="10"/>
<path d="M499.358 332.134L512.541 315.335" stroke="#16AB2B" stroke-opacity="0.5" stroke-width="4" stroke-miterlimit="10"/>
<path d="M354.879 222.036C354.879 222.036 409.521 259.33 446.513 220.225" stroke="#16AB2B" stroke-opacity="0.5" stroke-width="4" stroke-miterlimit="10"/>
<path d="M355.722 32.6169C367.991 -18.9196 490.907 -13.2489 468.035 87.0915C461.183 117.148 411.087 18.7673 367.852 42.9037C364.621 44.708 360.593 44.2411 357.891 41.7121C355.408 39.3888 354.934 35.9229 355.722 32.6169Z" fill="#D53B5E"/>
<path d="M423.234 351.772C423.201 351.783 423.158 351.794 423.114 351.794C422.82 351.826 422.515 351.837 422.21 351.837H183.764C180.596 351.837 177.776 350.368 175.936 348.061C174.564 346.353 173.747 344.176 173.747 341.815L173.714 341.706L136.585 236.856C133.743 228.847 139.688 220.436 148.192 220.436H303.004C308.23 220.436 312.879 223.721 314.622 228.641L354.637 341.619C354.68 341.748 354.702 341.815 354.702 341.815H422.439C428.655 341.815 429.342 351.108 423.234 351.772Z" fill="#69ADBF"/>
<path d="M245.409 283.731C249.325 295.108 244.897 306.943 235.521 310.165C226.146 313.388 215.372 306.777 211.458 295.401C207.544 284.024 211.97 272.19 221.346 268.967C230.721 265.745 241.495 272.355 245.409 283.731Z" fill="#2E2E46"/>
<path d="M422.441 341.812H354.7C354.7 341.812 354.682 341.745 354.641 341.616L314.621 228.637C312.877 223.72 308.229 220.439 303.006 220.439H297.83C297.83 220.439 309.397 221.193 312.288 231.537C315.179 241.872 354.7 351.619 354.7 351.619L357.622 351.835H422.205C422.519 351.835 422.824 351.824 423.118 351.795C429.351 351.226 428.695 341.812 422.441 341.812Z" fill="#2F7298"/>
<g opacity="0.399994">
<g opacity="0.399994">
<path opacity="0.399994" d="M423.234 351.772C423.201 351.783 423.158 351.794 423.114 351.794C422.82 351.826 422.515 351.837 422.21 351.837H183.764C180.596 351.837 177.776 350.368 175.936 348.061C316.876 360.162 303.004 220.436 303.004 220.436C308.23 220.436 312.879 223.721 314.622 228.641L354.637 341.619C354.68 341.748 354.702 341.815 354.702 341.815H421.372C422.091 345.112 422.722 348.431 423.234 351.772Z" fill="#2A94A2"/>
</g>
</g>
<path d="M740 366.201V368.715C740 376.398 733.761 382.622 726.074 382.622H13.9263C7.44767 382.622 2.00344 378.203 0.446397 372.23C0.446397 372.218 0.446453 372.208 0.435564 372.197C0.152465 371.075 0 369.912 0 368.715V366.201C0 358.517 6.22816 352.294 13.9263 352.294H726.074C733.761 352.294 740 358.517 740 366.201Z" fill="#3F537E"/>
<g opacity="0.5">
<g opacity="0.5">
<path opacity="0.5" d="M740 366.201V368.715C740 376.398 733.761 382.622 726.074 382.622H13.9263C7.44767 382.622 2.00344 378.203 0.446397 372.23C0.446397 372.218 0.446453 372.208 0.435564 372.197C0.141576 369.966 0 368.715 0 368.715C399.339 382.622 726.074 352.294 726.074 352.294C733.761 352.294 740 358.517 740 366.201Z" fill="#27273D"/>
</g>
</g>
<path d="M30.7931 133.533L25.8748 139.721Z" fill="#FFA24D"/>
<path d="M595.1 254.295C595.1 254.295 595.104 254.337 595.113 254.424C595.092 254.332 595.1 254.295 595.1 254.295Z" fill="#008167"/>
</svg>
