<svg width="34" height="50" viewBox="0 0 34 50" fill="none" xmlns="http://www.w3.org/2000/svg">
<path fill-rule="evenodd" clip-rule="evenodd" d="M9.19805 0C4.10013 0 0.000132302 4.27708 0.000132302 9.51667C0.000132302 12.7021 1.5168 15.5312 3.84805 17.2583C2.64655 18.1585 1.67265 19.3277 1.00443 20.6721C0.336213 22.0165 -0.00774464 23.4987 0.000132302 25C0.000132302 28.1875 1.5168 31.0146 3.84805 32.7417C2.64655 33.6418 1.67265 34.811 1.00443 36.1554C0.336213 37.4998 -0.00774464 38.982 0.000132302 40.4833C0.000132302 45.7229 4.10013 50 9.19805 50C14.2939 50 18.396 45.7229 18.396 40.4833V32.4375C20.0071 33.7808 22.0379 34.5172 24.1355 34.5187C29.2335 34.5167 33.3335 30.2396 33.3335 25C33.3418 23.4986 32.9981 22.0162 32.3298 20.6717C31.6616 19.3272 30.6874 18.1582 29.4855 17.2583C30.687 16.3582 31.6609 15.189 32.3292 13.8446C32.9974 12.5002 33.3413 11.018 33.3335 9.51667C33.3335 4.27708 29.2335 0 24.1355 0H9.19805ZM3.45638 9.51667C3.45638 6.20208 6.04388 3.54792 9.19805 3.54792H14.9376V15.4854H9.19805C6.04388 15.4854 3.45638 12.8292 3.45638 9.51667ZM24.1355 15.4833H18.396V3.54583H24.1355C27.2918 3.54583 29.8772 6.20208 29.8772 9.51667C29.8772 12.8292 27.2918 15.4833 24.1355 15.4833ZM3.45847 25C3.45847 21.6875 6.04597 19.0312 9.20013 19.0312H14.9397V30.9687H9.19805C6.0418 30.9687 3.45638 28.3125 3.45638 25H3.45847ZM18.396 25C18.396 21.6875 20.9835 19.0312 24.1376 19.0312C27.2939 19.0312 29.8793 21.6854 29.8793 25C29.8793 28.3125 27.2939 30.9687 24.1376 30.9687C20.9835 30.9687 18.3981 28.3146 18.3981 25H18.396ZM3.45847 40.4833C3.45847 37.1708 6.04597 34.5167 9.20013 34.5167H14.9397V40.4833C14.9397 43.7979 12.3564 46.4521 9.20013 46.4521C6.04597 46.4521 3.45847 43.7979 3.45847 40.4833Z" fill="#FFCCD8"/>
</svg>
