<svg width="50" height="50" viewBox="0 0 50 50" fill="none" xmlns="http://www.w3.org/2000/svg">
<path d="M25 0C38.75 0 50 11.25 50 25C50 38.75 38.75 50 25 50C11.25 50 0 38.75 0 25C0 11.25 11.25 0 25 0ZM20 33.2812C20.3125 34.6875 20.3125 35.9375 20 37.0312L19.8437 37.5C19.8437 37.6562 19.6875 37.8125 19.6875 37.8125C19.375 38.4375 19.0625 38.9062 18.5938 39.5312C17.1875 41.0938 15.1562 41.7187 14.2187 41.25C13.2812 40.7812 13.75 38.4375 15.4688 36.7188C17.3438 34.8438 19.8437 33.5938 19.8437 33.5938L20 33.2812ZM40.625 10.625C39.5312 6.25 32.1875 4.6875 25.1562 7.1875C21.0937 8.75 16.5625 11.0938 13.2812 14.0625C9.375 17.6562 8.90625 20.7812 9.0625 22.0312C10 26.5625 16.25 29.6875 18.9062 31.875C18.125 32.1875 12.5 35 11.25 37.9688C9.84375 41.0938 11.4062 43.2812 12.5 43.4375C15.7812 44.375 19.2188 42.6562 20.9375 40C22.6562 37.3438 22.5 34.0625 21.7188 32.3437C22.9342 31.9684 24.2263 31.9146 25.4688 32.1875C29.8438 32.6562 30.7812 35.4687 30.4687 36.5625C30.1562 37.6562 29.375 38.2812 29.0625 38.5937C28.75 38.75 28.5938 38.9062 28.75 38.9062C28.75 39.0625 28.9062 39.0625 29.2187 39.0625C29.5312 39.0625 31.5625 38.125 31.5625 35.9375C31.7187 33.2812 29.0625 30.3125 24.5312 30.3125C22.6562 30.3125 21.4062 30.4687 20.625 30.7812C20.625 30.625 20.4687 30.625 20.4687 30.625C17.6562 27.6562 12.5 25.4687 12.6562 21.4062C12.6562 20 13.2812 16.0938 22.6562 11.4062C30.3125 7.5 36.5625 8.59375 37.6562 10.9375C39.2188 14.2188 34.375 20.4687 26.4062 21.4062C23.2812 21.7187 21.7187 20.625 21.4062 20.1562C20.9375 19.6875 20.9375 19.6875 20.7812 19.6875C20.4688 19.8437 20.625 20.1562 20.7812 20.4687C21.0938 21.0937 22.0312 22.1875 23.75 22.8125C25.1562 23.2812 28.75 23.5938 33.125 21.875C37.9687 20 41.7188 14.8437 40.625 10.4688V10.625Z" fill="#FFCCD8"/>
</svg>
