<svg width="740" height="382" fill="none" xmlns="http://www.w3.org/2000/svg"><path d="M465.838 78.536c-1.625 35.546-36.587 62.783-62.775 64.428-34.601 2.174-59.33-29.012-62.775-64.428-2.985-30.682 7.918-30.225 16.037-43.014 9.839-15.496 28.175-24.058 46.738-24.058 34.67 0 64.96 19.247 62.775 67.072z" fill="#D53B5E"/><path d="M427.391 200.524h-48.657v-60.878h48.657v60.878zm30.326-96.387c8.679-13.163 19.721-13.74 24.334 1.827 4.61 15.569-10.61 28.378-23 23.651-12.392-4.727-1.334-25.478-1.334-25.478z" fill="#F3B6AB"/><path d="M467.963 104.481c5.813-1.063 8.792 16.248-3.957 16.819l2.622-6.041-2.46-5.024 3.795-5.754z" fill="#ED9099"/><path d="M462.099 123.674c7.432-7.917 2.068-13.439 2.068-13.439s7.074-14.498 9.908-3.387" stroke="#DF7F85" stroke-width=".667" stroke-miterlimit="10"/><path d="M348.002 104.137c-8.68-13.163-19.722-13.74-24.333 1.827-4.611 15.569 10.609 28.378 23 23.651s1.333-25.478 1.333-25.478z" fill="#F3B6AB"/><path d="M337.757 104.481c-5.813-1.063-8.794 16.248 3.957 16.819l-2.622-6.041 2.459-5.024-3.794-5.754z" fill="#ED9099"/><path d="M343.62 123.674c-7.432-7.917-2.068-13.439-2.068-13.439s-7.073-14.498-9.909-3.387" stroke="#DF7F85" stroke-width=".667" stroke-miterlimit="10"/><path d="M427.391 140.992v22.648c-17.485 23.678-48.657 15.979-48.657 15.979l.546-38.627h48.111z" fill="#DF7F85"/><path d="M403.062 166.941c-29.046 0-52.591-23.531-52.591-52.56v-38.41c0-19.606 15.903-35.5 35.521-35.5h34.14c19.618 0 35.522 15.894 35.522 35.5v38.41c0 29.029-23.546 52.56-52.592 52.56z" fill="#F3B6AB"/><path d="M411.155 121.252c0 4.466-3.623 8.087-8.093 8.087a8.09 8.09 0 01-8.09-8.087" stroke="#D53B5E" stroke-width="1.333" stroke-miterlimit="10"/><path d="M356.027 42.822s-9.211-15.26 2.326-28.715c0 0 8.29 15.34-2.326 28.715z" fill="#D53B5E"/><path d="M360.707 39.198s-12.827 12.38-28.526 4.144c0 0 13.111-11.5 28.526-4.144z" fill="#D53B5E"/><path d="M382.178 102.386c0 4.346-1.852 7.869-4.137 7.869-2.284 0-4.137-3.523-4.137-7.869s1.853-7.869 4.137-7.869c2.285 0 4.137 3.523 4.137 7.869z" fill="#33334F"/><path d="M397.05 101.801c0 11.673-9.467 21.136-21.148 21.136-11.68 0-21.149-9.463-21.149-21.136s9.469-21.136 21.149-21.136c11.681 0 21.148 9.463 21.148 21.136z" stroke="#2E2E46" stroke-width="5.333" stroke-miterlimit="10"/><path d="M432.221 102.386c0 4.346-1.852 7.869-4.138 7.869-2.284 0-4.136-3.523-4.136-7.869s1.852-7.869 4.136-7.869c2.286 0 4.138 3.523 4.138 7.869z" fill="#33334F"/><path d="M451.371 101.801c0 11.673-9.468 21.136-21.149 21.136-11.679 0-21.149-9.463-21.149-21.136s9.47-21.136 21.149-21.136c11.681 0 21.149 9.463 21.149 21.136z" stroke="#2E2E46" stroke-width="5.333" stroke-miterlimit="10"/><path d="M356.989 55.472s33.411-17.603 55.612-4.845c22.2 12.758 24.698 39.106 46.621 32.287 0 0 16.65-7.326-1.665-32.842-18.314-25.515-30.846-30.508-54.69-24.96-23.845 5.547-39.36 9.86-45.878 30.36z" fill="#D53B5E"/><path d="M355.712 55.218s11.029-14.614 26.466-18.477c15.437-3.864 32.513 15.114 32.513 15.114s-39.553-5.636-58.979 3.364z" fill="#B32C4F"/><path d="M350.552 73.602s3.72 27.123 0 43.677c0 0-5.438-42.06 0-43.677zm104.72 0s-3.72 27.123 0 43.677c0 0 5.437-42.06 0-43.677zm-67.803-2.117c-5.739-2.746-15.946-5.759-25.402.973-1.586 1.13-.983 3.621.936 3.952 3.033.523 7.385 1.064 12.312 1.033 3.83-.024 8.363-.967 11.747-1.836 1.989-.511 2.26-3.236.407-4.122zm55.417 0c-5.739-2.746-15.946-5.759-25.402.973-1.585 1.13-.982 3.621.936 3.952 3.033.523 7.386 1.064 12.314 1.033 3.828-.024 8.361-.967 11.745-1.836 1.989-.511 2.26-3.236.407-4.122z" fill="#D53B5E"/><path d="M420.852 140.236c-.546.973-1.19 1.991-2.072 3.004-2.812 3.382-7.586 6.631-15.764 6.78l-.013.036-.6-.01-.023-.049c-7.669-.152-12.395-3.035-15.244-6.218a17.21 17.21 0 01-2.544-3.598c-1.362-2.613-1.717-4.668-1.717-4.668l39.711.075s-.327 2.053-1.734 4.648z" fill="#E23C5E"/><path d="M420.852 140.236c-.546.973-1.19 1.991-2.072 3.004-9.115-4.003-20.08-4.84-31.644.539a17.21 17.21 0 01-2.544-3.598c-1.362-2.613-1.717-4.668-1.717-4.668l39.711.075s-.327 2.053-1.734 4.648z" fill="#33334F"/><path d="M571.861 351.739l-356.008.37s6.642-13.886 16.202-32.287c.707-1.361 1.437-2.754 2.177-4.168 13.056-24.888 30.619-56.326 44.327-73.378 15.788-19.631 53.092-33.626 78.43-41.277 14.764-4.45 25.457-6.746 25.457-6.746h40.897s9.603 2.057 23.17 6.071c25.316 7.476 63.164 22.821 80.716 41.952 3.855 4.2 7.481 9.281 10.878 14.919 21.602 35.878 33.754 94.544 33.754 94.544z" fill="#52F769" fill-opacity=".2"/><path opacity=".5" d="M571.861 351.739l-356.008.37s6.642-13.886 16.202-32.288c177.656 52.193 271.276-33.341 292.642-56.494 3.449-3.739 8.238-5.989 13.324-6.13l.086-.002c21.602 35.878 33.754 94.544 33.754 94.544z" fill="#16AB2B" fill-opacity=".2"/><path d="M397.477 105.395h11.17" stroke="#2E2E46" stroke-width="5.333" stroke-miterlimit="10"/><path d="M446.513 200.321c-44.07 48.457-89.524.684-89.524.684 14.766-4.461 25.461-6.757 25.461-6.757h40.896s9.602 2.064 23.167 6.073z" fill="#F3B6AB"/><path d="M305.76 296.912v55.262m0-20.04l-14.848-18.92" stroke="#F68400" stroke-width="4" stroke-miterlimit="10"/><path d="M499.358 296.912v55.262m0-20.04l13.183-16.799m-157.662-93.299s54.642 37.294 91.634-1.811" stroke="#16AB2B" stroke-opacity=".5" stroke-width="4" stroke-miterlimit="10"/><path d="M355.722 32.617C367.991-18.92 490.907-13.25 468.035 87.09c-6.852 30.057-56.948-68.324-100.183-44.187-3.231 1.804-7.259 1.337-9.961-1.192-2.483-2.323-2.957-5.79-2.169-9.095z" fill="#D53B5E"/><path d="M423.234 351.772a.389.389 0 01-.12.022 8.41 8.41 0 01-.904.043H183.764a9.98 9.98 0 01-7.828-3.776 9.945 9.945 0 01-2.189-6.246l-.033-.109-37.129-104.85c-2.842-8.009 3.103-16.42 11.607-16.42h154.812c5.226 0 9.875 3.285 11.618 8.205l40.015 112.978.065.196h67.737c6.216 0 6.903 9.293.795 9.957z" fill="#69ADBF"/><path d="M245.409 283.731c3.916 11.377-.512 23.212-9.888 26.434-9.375 3.223-20.149-3.388-24.063-14.764-3.914-11.377.512-23.211 9.888-26.434 9.375-3.222 20.149 3.388 24.063 14.764z" fill="#2E2E46"/><path d="M422.441 341.812H354.7s-.018-.067-.059-.196l-40.02-112.979a12.315 12.315 0 00-11.615-8.198h-5.176s11.567.754 14.458 11.098c2.891 10.335 42.412 120.082 42.412 120.082l2.922.216h64.583c.314 0 .619-.011.913-.04 6.233-.569 5.577-9.983-.677-9.983z" fill="#2F7298"/><path opacity=".4" d="M423.234 351.772a.389.389 0 01-.12.022 8.41 8.41 0 01-.904.043H183.764a9.98 9.98 0 01-7.828-3.776c140.94 12.101 127.068-127.625 127.068-127.625 5.226 0 9.875 3.285 11.618 8.205l40.015 112.978.065.196h66.67a161.71 161.71 0 011.862 9.957z" fill="#2A94A2"/><path d="M740 366.201v2.514c0 7.683-6.239 13.907-13.926 13.907H13.926c-6.478 0-11.923-4.419-13.48-10.392 0-.012 0-.022-.01-.033A14.197 14.197 0 010 368.715v-2.514c0-7.684 6.228-13.907 13.926-13.907h712.148c7.687 0 13.926 6.223 13.926 13.907z" fill="#3F537E"/><path opacity=".5" d="M740 366.201v2.514c0 7.683-6.239 13.907-13.926 13.907H13.926c-6.478 0-11.923-4.419-13.48-10.392 0-.012 0-.022-.01-.033-.294-2.231-.436-3.482-.436-3.482 399.339 13.907 726.074-16.421 726.074-16.421 7.687 0 13.926 6.223 13.926 13.907z" fill="#27273D"/><path d="M30.793 133.533l-4.918 6.188z" fill="#FFA24D"/><path d="M595.1 254.295l.013.129c-.021-.092-.013-.129-.013-.129z" fill="#008167"/></svg>